HIERARCHY
ROOT Hips
{
  OFFSET 279.157 85.6768 304.565
  CHANNELS 6 Xposition Yposition Zposition Zrotation Xrotation Yrotation
  JOINT LeftUpLeg
  {
    OFFSET 8.64259 1.95398 -2.38835
    CHANNELS 3 Zrotation Xrotation Yrotation
    JOINT LeftLeg
    {
      OFFSET 43.7702 0 0
      CHANNELS 3 Zrotation Xrotation Yrotation
      JOINT LeftFoot
      {
        OFFSET 40.6238 0 0
        CHANNELS 3 Zrotation Xrotation Yrotation
        JOINT LeftToeBase
        {
          OFFSET 12.7242 0 0
          CHANNELS 3 Zrotation Xrotation Yrotation
          End Site
          {
            OFFSET 0 0 0
          }
        }
      }
    }
  }
  JOINT RightUpLeg
  {
    OFFSET -8.2249 1.95398 -2.59336
    CHANNELS 3 Zrotation Xrotation Yrotation
    JOINT RightLeg
    {
      OFFSET 43.5653 0 0
      CHANNELS 3 Zrotation Xrotation Yrotation
      JOINT RightFoot
      {
        OFFSET 40.6238 0 0
        CHANNELS 3 Zrotation Xrotation Yrotation
        JOINT RightToeBase
        {
          OFFSET 12.7242 0 0
          CHANNELS 3 Zrotation Xrotation Yrotation
          End Site
          {
            OFFSET 0 0 0
          }
        }
      }
    }
  }
  JOINT Spine
  {
    OFFSET 0.165834 0.87714 6.61349
    CHANNELS 3 Zrotation Xrotation Yrotation
    JOINT Spine1
    {
      OFFSET 7.38963 1.71661e-005 0
      CHANNELS 3 Zrotation Xrotation Yrotation
      JOINT Spine2
      {
        OFFSET 11.9445 1.14441e-005 0
        CHANNELS 3 Zrotation Xrotation Yrotation
        JOINT Spine3
        {
          OFFSET 14.7254 4.19617e-005 0
          CHANNELS 3 Zrotation Xrotation Yrotation
          JOINT Spine4
          {
            OFFSET 10.9679 0 0
            CHANNELS 3 Zrotation Xrotation Yrotation
            JOINT RightShoulder
            {
              OFFSET 2.46616 -1.6653 3.69651
              CHANNELS 3 Zrotation Xrotation Yrotation
              JOINT RightArm
              {
                OFFSET 13.0012 0 0
                CHANNELS 3 Zrotation Xrotation Yrotation
                JOINT RightForeArm
                {
                  OFFSET 28.7848 1.52588e-005 0
                  CHANNELS 3 Zrotation Xrotation Yrotation
                  JOINT RightHand
                  {
                    OFFSET 26.5688 1.52588e-005 0
                    CHANNELS 3 Zrotation Xrotation Yrotation
                    End Site
                    {
                      OFFSET 0 0 0
                    }
                  }
                }
              }
            }
            JOINT LeftShoulder
            {
              OFFSET 2.38034 -1.29275 -3.7523
              CHANNELS 3 Zrotation Xrotation Yrotation
              JOINT LeftArm
              {
                OFFSET 16.3182 6.10351e-005 0
                CHANNELS 3 Zrotation Xrotation Yrotation
                JOINT LeftForeArm
                {
                  OFFSET 27.0901 0 0
                  CHANNELS 3 Zrotation Xrotation Yrotation
                  JOINT LeftHand
                  {
                    OFFSET 24.5451 1.52588e-005 0
                    CHANNELS 3 Zrotation Xrotation Yrotation
                    End Site
                    {
                      OFFSET 0 0 0
                    }
                  }
                }
              }
            }
            JOINT Neck
            {
              OFFSET 5.0226 -0.0266342 0
              CHANNELS 3 Zrotation Xrotation Yrotation
              JOINT Head
              {
                OFFSET 6.69364 2.86102e-005 0
                CHANNELS 3 Zrotation Xrotation Yrotation
                End Site
                {
                  OFFSET 0 0 0
                }
              }
            }
          }
        }
      }
    }
  }
}
MOTION
Frames:	12
Frame Time:	0.0416667
32.8263 101.942 18.2955 -150.413 -82.9637 -151.582 -173.925 -3.42995 89.6494 -12.142 -0.177668 -0.234556 69.3425 5.68281 -1.87496 19.3521 -7.75067 7.52328 172.925 -2.89111 87.2048 -12.1757 -7.3525 -0.698944 66.3448 -3.41421 1.32579 26.4449 0.256369 3.61907 0.301991 7.43405 -89.9772 12.006 0.611218 -0.0209786 0.335203 0.609702 -0.0478575 -22.201 0.589254 0.163702 -2.18839 0.589267 0.163701 91.2126 -29.014 -104.696 44.6053 -14.5282 -5.76256 4.69162 -20.358 -14.172 -23.0161 -0.258961 -9.18315 -87.9774 -52.0054 82.1136 -25.3755 14.8677 -12.2248 -1.39521 4.87262 -6.40649 -1.64899 -0.110038 -7.45882 6.68312 -1.83547 -1.96076 -7.55033 -1.54826 2.68759 
32.8373 101.961 18.2395 -150.917 -83.1854 -152.105 -174.088 -3.31072 89.5519 -11.9716 -0.319508 -0.107518 69.2931 5.48264 -2.30606 18.9807 -7.98184 7.49647 173.034 -2.80647 87.2791 -12.0021 -7.3257 -0.770446 66.0415 -3.28541 1.10414 26.0776 0.40696 3.37862 0.295281 7.4006 -90.0153 12.073 0.579761 -0.0942666 0.402152 0.575054 -0.119692 -22.134 0.581286 0.0843446 -2.12139 0.581283 0.084339 91.4588 -28.6577 -104.324 44.7356 -14.9855 -5.72614 4.56635 -22.2305 -13.7305 -24.1051 -0.317755 -9.28971 -88.547 -53.0898 81.4743 -24.023 15.9867 -11.9015 -2.2703 2.78559 -6.28348 0.477419 -0.2099 -9.29347 5.9769 -1.92772 -1.16412 -6.60791 -1.75123 1.93222 
32.8693 101.95 18.2096 -150.5 -83.2831 -151.716 -174.193 -3.16033 89.4321 -12.0359 0.067829 -0.0760988 69.1449 5.40675 -2.13614 18.2831 -8.28505 7.09855 173.015 -2.64507 87.2348 -12.0492 -6.98809 -0.739204 66.212 -3.29754 1.38913 25.9054 0.444002 3.4874 0.310387 7.41137 -90.0346 12.0516 0.600755 -0.134908 0.380825 0.59424 -0.161226 -22.1554 0.613525 0.0518905 -2.1428 0.613528 0.0518826 91.6114 -28.5444 -104.053 44.4147 -14.9605 -6.42849 5.83821 -24.8696 -12.3846 -23.4522 -0.307694 -10.3239 -88.7287 -53.5329 81.2912 -23.7979 15.6085 -12.2506 -2.16609 2.9567 -6.01542 -0.321995 -0.184634 -9.6181 6.09964 -1.92053 -0.74842 -6.4109 -1.81443 1.8 
32.8897 101.96 18.1748 -149.351 -83.2662 -150.636 -174.16 -3.16843 89.3831 -11.9087 -0.175375 -0.172867 69.1543 5.40114 -2.30452 17.7499 -8.63173 7.10176 172.99 -2.54484 87.1655 -12.0777 -7.23103 -0.766719 66.3042 -3.36787 1.22074 25.6304 0.526374 3.50758 0.3181 7.41241 -89.9944 12.0495 0.635115 -0.0582605 0.378709 0.631927 -0.0861662 -22.1577 0.623257 0.13532 -2.14502 0.623255 0.135314 91.4443 -28.9058 -104.265 44.3208 -14.9664 -6.60209 6.07395 -24.0107 -11.9423 -24.2504 -0.244663 -10.2536 -88.3808 -52.7333 81.652 -24.6659 15.1095 -12.3305 -1.8603 3.56243 -5.66632 -0.0166377 -0.19298 -9.34744 6.0458 -1.92704 -1.06664 -6.46529 -1.7612 1.80229 
32.9055 101.957 18.1791 -149.263 -83.2908 -150.464 -174.124 -3.04319 89.4933 -12.0654 -0.267293 -0.157926 69.1521 5.30872 -2.54386 17.934 -8.36017 6.70142 173.03 -2.57348 87.2392 -11.9579 -7.17647 -0.74953 66.1461 -3.26627 1.35783 25.8227 0.474177 3.45864 0.314632 7.41285 -90.0042 12.0486 0.623584 -0.0765581 0.377754 0.619613 -0.103931 -22.1586 0.617761 0.114396 -2.14593 0.617766 0.114407 91.4663 -28.8601 -104.236 44.3026 -14.8207 -6.66088 5.8202 -24.5878 -11.8615 -24.7453 -0.361053 -9.70265 -88.2159 -52.6929 81.8851 -24.732 14.7643 -12.4587 -1.75172 4.34697 -5.4179 -0.120002 -0.197909 -9.82802 5.92386 -1.85682 -1.09176 -6.73686 -1.70198 2.01604 
32.9356 101.941 18.2011 -149.628 -83.2245 -150.747 -174.1 -3.13036 89.5206 -12.0639 0.173413 -0.158452 69.199 5.49633 -1.95018 18.0732 -8.48671 7.27189 173.027 -2.67434 87.2771 -11.9478 -7.24027 -0.727907 66.0696 -3.25073 1.31624 26.1071 0.407851 3.31241 0.309211 7.43267 -90.0546 12.0091 0.589038 -0.17304 0.338293 0.580846 -0.198799 -22.1979 0.613804 0.0120022 -2.18529 0.613807 0.012002 91.489 -28.6668 -104.259 44.0981 -14.9635 -6.66728 5.76354 -23.3482 -11.6582 -23.592 -0.121136 -10.8776 -88.411 -53.4376 81.7329 -23.5107 16.0561 -12.2982 -2.42971 2.66731 -6.12694 0.436426 -0.2181 -9.60653 5.88992 -1.81107 -0.482131 -6.80046 -1.75955 1.6561 
32.9733 101.954 18.2349 -150.149 -83.403 -151.307 -174.076 -2.99812 89.5226 -12.1058 -0.00236072 -0.211278 69.2584 5.45062 -2.33925 17.8707 -8.46071 6.85813 173.001 -2.58169 87.2423 -11.953 -7.13638 -0.714167 66.1309 -3.28576 1.25087 25.8419 0.468135 3.46249 0.319336 7.41984 -90.012 12.0346 0.629263 -0.0926777 0.36379 0.624571 -0.120289 -22.1726 0.628019 0.100733 -2.15992 0.628023 0.100736 91.596 -29.1324 -103.878 43.9828 -15.367 -6.76398 5.65586 -21.5059 -11.86 -24.3396 -0.0288155 -10.6151 -88.312 -52.5332 81.7168 -24.8156 14.578 -12.5405 -1.62547 4.5979 -5.42356 -0.461518 -0.184306 -9.98177 5.89035 -1.971 -1.07987 -7.0079 -1.81117 1.76859 
33.0266 101.936 18.2591 -150.559 -83.3247 -151.582 -173.996 -2.8856 89.6395 -12.5374 0.14478 -0.213039 69.4258 5.49843 -2.24116 18.209 -8.29667 7.00161 172.959 -2.83093 87.2757 -11.6006 -7.343 -0.637944 65.7174 -3.07584 1.62726 26.6029 0.399446 2.32204 0.296433 7.42476 -90.0483 12.0249 0.566576 -0.158266 0.354076 0.559066 -0.18306 -22.1821 0.587945 0.0193364 -2.16942 0.587955 0.019338 91.3721 -28.7853 -104.455 44.2023 -15.1287 -6.48344 5.31299 -21.2662 -11.9039 -24.4978 0.0144062 -10.7424 -88.1475 -52.7586 81.9959 -25.0404 14.3206 -12.3769 -1.46078 4.48206 -5.57573 -0.179832 -0.19137 -9.62876 5.85432 -1.77995 -0.52786 -7.01245 -1.70841 1.3074 
33.0564 101.921 18.2888 -150.516 -83.5442 -151.76 -174.129 -2.80398 89.3888 -12.3557 0.15259 -0.234489 69.3108 5.52192 -2.13598 17.94 -8.39151 6.79413 172.836 -2.5029 87.0048 -11.7823 -7.07521 -0.620205 65.8123 -3.0156 2.01404 26.8828 0.27057 2.59364 0.271966 7.4049 -90.0164 12.0644 0.532988 -0.091131 0.393565 0.528461 -0.114503 -22.1425 0.535727 0.0732744 -2.12982 0.53573 0.0732685 91.1844 -28.9789 -104.765 44.0087 -14.8719 -6.38207 5.30166 -22.4025 -12.0256 -24.6349 -0.102793 -10.4338 -88.0407 -52.8229 82.1629 -24.0014 15.9731 -12.1197 -2.22889 2.62625 -6.42697 0.104456 -0.191842 -9.0928 5.72359 -1.71227 -0.67397 -6.92254 -1.61604 1.35548 
33.0762 101.921 18.3427 -149.54 -83.3719 -150.711 -174.037 -2.94718 89.4656 -12.3688 0.0782162 -0.28314 69.4082 5.55452 -2.1442 18.0545 -8.37827 6.95387 172.886 -2.63158 87.0603 -11.7752 -7.26434 -0.673087 65.6899 -2.94323 2.16683 27.1206 0.269239 2.07757 0.293755 7.41188 -90.0328 12.0506 0.568573 -0.127564 0.379732 0.562407 -0.152467 -22.1564 0.580623 0.0492232 -2.14378 0.58062 0.049216 91.2253 -28.8234 -104.739 44.1907 -14.5941 -6.4112 5.44926 -23.8457 -12.018 -23.9568 -0.159637 -10.7458 -88.2146 -52.6184 81.8737 -25.1439 14.3549 -12.0887 -1.42412 4.08312 -5.89538 0.186631 -0.194159 -9.0041 5.38367 -1.88075 -0.638581 -6.8936 -1.78844 1.30269 
33.0927 101.94 18.3658 -149.867 -83.4344 -151.082 -174.001 -3.07385 89.4539 -12.0535 0.197031 -0.359975 69.2919 5.6171 -1.97212 17.8068 -8.45849 6.74434 172.806 -2.54779 87.0152 -11.9875 -7.79454 -0.641278 65.9675 -3.22376 1.21013 26.3478 0.416957 2.75151 0.284737 7.4121 -90.057 12.0502 0.539217 -0.172755 0.379309 0.531084 -0.196322 -22.1567 0.56621 -0.00269986 -2.1441 0.566199 -0.0027089 91.2177 -28.5182 -104.865 44.3668 -14.4746 -6.42093 5.414 -24.0227 -11.8327 -24.0302 -0.191046 -10.6174 -88.2695 -53.3076 81.9148 -24.0555 15.3779 -12.0944 -1.98286 3.01919 -6.29689 0.290572 -0.197767 -9.01169 5.26999 -1.7119 -0.167572 -6.94933 -1.69924 1.02894 
33.0744 101.929 18.4023 -149.411 -83.4531 -150.601 -174.094 -3.03143 89.4168 -12.1135 0.0379407 -0.250388 69.3929 5.55578 -2.18831 17.8573 -8.56672 7.11406 172.871 -2.60319 87.0635 -11.7886 -7.35214 -0.661799 65.8392 -3.07025 1.80016 26.706 0.352837 2.41348 0.281522 7.41239 -90.0413 12.0495 0.540206 -0.14152 0.378704 0.533461 -0.165164 -22.1574 0.557772 0.0273802 -2.14471 0.557769 0.0273863 91.0288 -28.8188 -105.139 44.2628 -14.6122 -6.37193 5.34014 -22.0577 -11.4715 -25.134 -0.0250995 -10.6379 -88.3011 -52.867 81.7918 -24.399 15.2586 -11.9812 -1.941 2.72326 -6.19883 0.323581 -0.205624 -9.26351 5.04868 -1.71979 -0.611082 -6.64055 -1.6302 1.19759 
